<?xml version="1.0" encoding="utf-8"?>
<!-- Generator: Adobe Illustrator 21.1.0, SVG Export Plug-In . SVG Version: 6.00 Build 0)  -->
<svg version="1.1"
	 id="Layer_1" xmlns:cc="http://creativecommons.org/ns#" xmlns:dc="http://purl.org/dc/elements/1.1/" xmlns:rdf="http://www.w3.org/1999/02/22-rdf-syntax-ns#"
	 xmlns="http://www.w3.org/2000/svg" xmlns:xlink="http://www.w3.org/1999/xlink" x="0px" y="0px" width="220px" height="50px" viewBox="0 0 220 50"
	 style="enable-background:new 0 0 220 50;" xml:space="preserve">
<style type="text/css">
	.st0{fill:#1F1949;}
	.st1{fill:#F7B912;}
	.st2{fill:url(#SVGID_1_);}
	.st3{fill:url(#SVGID_2_);}
</style>
<g>
	<path class="st0" d="M83.8,13.6c-4.9,0-7.8,2.2-7.8,8.2V25c0,6,2.9,8.2,7.8,8.2c4.9,0,7.8-2.2,7.8-8.2v-3.2
		C91.6,15.8,88.6,13.6,83.8,13.6z M87.9,25c0,3.7-1.7,4.8-4.1,4.8c-2.5,0-4.2-1.3-4.2-4.8v-3.2c0-3.5,1.7-4.8,4.2-4.8
		c2.5,0,4.1,1.3,4.1,4.8V25z"/>
	<path class="st0" d="M126.9,13.9h-6.8c0,0-0.3,0-0.3,0.3c0,0.3,0,18.2,0,18.5c0,0.3,0.3,0.3,0.3,0.3h3.3c0,0,0.3,0,0.3-0.3
		c0-0.3,0-6.8,0-7.1c0-0.3,0.3-0.3,0.3-0.3h3.7c3.4,0,5.6-2.5,5.6-5.9C133.2,16.2,130.3,13.9,126.9,13.9z M126.7,22.3h-2.8
		c0,0-0.3,0-0.3-0.3c0-0.3,0-4.6,0-4.9c0-0.3,0.3-0.3,0.3-0.3h2.8c1.6,0,2.9,1.1,2.9,2.6C129.6,21.1,128.2,22.3,126.7,22.3z"/>
	<path class="st0" d="M112.7,13.9H94.8c0,0-0.3,0-0.3,0.3c0,0,0,18.3,0,18.5c0,0.3,0.3,0.3,0.3,0.3h3.3c0,0,0.3,0,0.3-0.3
		c0-0.3,0-15.2,0-15.2s4.4,0,4.7,0c0.3,0,0.3,0.3,0.3,0.3s0,14.6,0,14.9s0.3,0.3,0.3,0.3h3.3c0,0,0.3,0,0.3-0.3c0-0.3,0-15.2,0-15.2
		s4.4,0,4.7,0c0.3,0,0.3,0.3,0.3,0.3s0,14.6,0,14.9s0.3,0.3,0.3,0.3h3.3c0,0,0.3,0,0.3-0.3s0-16.2,0-16.2
		C115.9,15.6,115.7,14,112.7,13.9z"/>
	<path class="st0" d="M161.5,29.7c-0.3,0-8.1,0-8.1,0s-0.3,0-0.3-0.3c0-0.3,0-4.1,0-4.4c0-0.3,0.3-0.3,0.3-0.3s6.5,0,6.7,0
		c0.3,0,0.3-0.3,0.3-0.3v-2.7c0,0,0-0.3-0.3-0.3c-0.2,0-6.7,0-6.7,0s-0.3,0-0.3-0.3s0-3.5,0-3.8c0-0.3,0.3-0.3,0.3-0.3s7.8,0,8.1,0
		c0.3,0,0.3-0.3,0.3-0.3l0-2.7c0,0,0-0.3-0.3-0.3s-11.9,0-11.9,0s-0.3,0-0.3,0.3c0,0,0,18.2,0,18.5s0.3,0.3,0.3,0.3s11.6,0,11.9,0
		s0.3-0.3,0.3-0.3l0-2.7C161.8,30,161.8,29.7,161.5,29.7z"/>
	<path class="st0" d="M164.2,13.9c0,0-0.3,0-0.3,0.3s0,2.4,0,2.7s0.3,0.3,0.3,0.3s4,0,4.3,0c0.3,0,0.3,0.3,0.3,0.3s0,15,0,15.3
		S169,33,169,33h3c0,0,0.3,0,0.3-0.3s0-15.3,0-15.3s0-0.3,0.3-0.3c0.3,0,4,0,4.3,0c0.3,0,0.3-0.3,0.3-0.3v-2.7c0,0,0-0.3-0.3-0.3
		C176.7,13.9,164.2,13.9,164.2,13.9z"/>
	<path class="st0" d="M192.2,13.9c-0.3,0-12.7,0-12.7,0s-0.3,0-0.3,0.3c0,0.3,0,2.4,0,2.7c0,0.3,0.3,0.3,0.3,0.3s4,0,4.3,0
		c0.3,0,0.3,0.3,0.3,0.3s0,15,0,15.3c0,0.3,0.3,0.3,0.3,0.3h3.1c0,0,0.3,0,0.3-0.3s0-15.3,0-15.3s0-0.3,0.3-0.3s4,0,4.3,0
		s0.3-0.3,0.3-0.3v-2.7C192.5,14.2,192.5,13.9,192.2,13.9z"/>
	<path class="st0" d="M75.2,13.9c-0.5,0-3.7,0-4,0c-0.4,0-0.5,0.3-0.5,0.3l-7.1,7.9c0,0,0-7.6,0-7.9s-0.3-0.3-0.3-0.3h-3.3
		c0,0-0.3,0-0.3,0.3s0,18.2,0,18.5c0,0.3,0.3,0.3,0.3,0.3h3.3c0,0,0.3,0,0.3-0.3s0-8.7,0-8.7l7.2,8.7c0,0,0.2,0.3,0.5,0.3
		c0.4,0,3.4,0,3.8,0c0.4,0,0.2-0.3,0.2-0.3l-8.3-9.8l8.3-8.7C75.5,14.2,75.7,13.9,75.2,13.9z"/>
	<path class="st0" d="M139.6,29.7c0,0-0.3,0-0.3-0.3c0-0.3,0-15,0-15.3c0-0.3-0.3-0.3-0.3-0.3h-3.3c0,0-0.3,0-0.3,0.3
		c0,0.3,0,18.3,0,18.5c0,0.3,0.3,0.3,0.3,0.3s10.4,0,10.8,0c0.3,0,0.3-0.3,0.3-0.3V30c0,0,0-0.3-0.3-0.3
		C146.3,29.7,139.6,29.7,139.6,29.7z"/>
</g>
<g>
	<path class="st0" d="M198,12.6c1.6,0,2.9,1.3,2.9,2.9c0,1.6-1.3,2.9-2.9,2.9s-2.9-1.3-2.9-2.9C195.1,13.9,196.4,12.6,198,12.6z
		 M198,17.8c1.3,0,2.3-1,2.3-2.3c0-1.3-1-2.3-2.3-2.3s-2.3,1-2.3,2.3C195.7,16.9,196.7,17.8,198,17.8z M199.5,16.7v0.4l-0.1,0.1
		h-0.2l-0.2-0.1l-0.9-1.1l-0.2-0.1h-0.5l-0.1,0.1v1.1l-0.1,0.1h-0.5l-0.1-0.1V14l0.1-0.1h1.6c0.7,0,1.1,0.3,1.1,1
		c0,0.4-0.2,0.7-0.7,0.9v0.1L199.5,16.7z M198.4,14.5h-1l-0.1,0.1v0.7l0.1,0.1h1c0.2,0,0.4-0.2,0.4-0.4
		C198.8,14.7,198.6,14.5,198.4,14.5z"/>
</g>
<g>
	<polygon class="st1" points="41,17.4 50.2,12 31.7,1.3 13.2,12 13.2,33.4 31.7,44.1 50.2,33.4 41,17.4 	"/>
	<polygon class="st1" points="13.2,33.4 22.4,28.1 31.7,44.1 	"/>
	<polygon class="st1" points="13.2,12 31.7,1.3 50.2,12 31.7,22.7 	"/>
	
		<linearGradient id="SVGID_1_" gradientUnits="userSpaceOnUse" x1="14.3369" y1="18.0062" x2="22.7668" y2="35.29" gradientTransform="matrix(1 0 0 -1 0 52)">
		<stop  offset="0" style="stop-color:#B77B06"/>
		<stop  offset="0.5" style="stop-color:#D7920A"/>
		<stop  offset="1" style="stop-color:#ECA70D"/>
	</linearGradient>
	<polygon class="st2" points="13.2,12 31.7,22.7 13.2,33.4 	"/>
	
		<linearGradient id="SVGID_2_" gradientUnits="userSpaceOnUse" x1="30.7512" y1="29.5278" x2="41.9219" y2="12.9665" gradientTransform="matrix(1 0 0 -1 0 52)">
		<stop  offset="0" style="stop-color:#B77B06"/>
		<stop  offset="0.5" style="stop-color:#E69F0C"/>
		<stop  offset="1" style="stop-color:#F7B912"/>
	</linearGradient>
	<polygon class="st3" points="41,17.4 50.2,33.4 31.7,44.1 22.4,28.1 	"/>
</g>
</svg>
